# Blender v2.83.4 OBJ File: ''
# www.blender.org
mtllib cylinder.mtl
o Cylinder
v -0.001229 0.330685 -1.090590
v -0.011074 0.332325 1.091275
v 0.107167 0.324480 -1.088734
v 0.097322 0.326120 1.093131
v 0.211634 0.304527 -1.086962
v 0.201789 0.306166 1.094903
v 0.308157 0.271591 -1.085343
v 0.298312 0.273231 1.096522
v 0.393027 0.226939 -1.083939
v 0.383182 0.228579 1.097926
v 0.462982 0.172287 -1.082804
v 0.453137 0.173927 1.099061
v 0.515335 0.109735 -1.081981
v 0.505490 0.111375 1.099884
v 0.548072 0.041687 -1.081502
v 0.538227 0.043327 1.100363
v 0.559937 -0.029242 -1.081385
v 0.550092 -0.027602 1.100480
v 0.550472 -0.100326 -1.081635
v 0.540628 -0.098686 1.100230
v 0.520043 -0.168834 -1.082243
v 0.510198 -0.167194 1.099622
v 0.469818 -0.232133 -1.083184
v 0.459973 -0.230493 1.098681
v 0.401727 -0.287790 -1.084424
v 0.391882 -0.286150 1.097441
v 0.318387 -0.333667 -1.085913
v 0.308542 -0.332027 1.095952
v 0.223001 -0.367999 -1.087595
v 0.213156 -0.366360 1.094270
v 0.119234 -0.389470 -1.089406
v 0.109389 -0.387830 1.092459
v 0.011074 -0.397251 -1.091275
v 0.001229 -0.395612 1.090590
v -0.097322 -0.391046 -1.093131
v -0.107167 -0.389407 1.088734
v -0.201789 -0.371093 -1.094903
v -0.211634 -0.369453 1.086962
v -0.298312 -0.338157 -1.096522
v -0.308157 -0.336517 1.085343
v -0.383182 -0.293505 -1.097926
v -0.393027 -0.291865 1.083939
v -0.453138 -0.238853 -1.099061
v -0.462982 -0.237213 1.082804
v -0.505490 -0.176301 -1.099884
v -0.515335 -0.174661 1.081981
v -0.538227 -0.108253 -1.100363
v -0.548072 -0.106613 1.081502
v -0.550092 -0.037324 -1.100480
v -0.559937 -0.035684 1.081385
v -0.540627 0.033760 -1.100230
v -0.550472 0.035400 1.081636
v -0.510198 0.102268 -1.099622
v -0.520043 0.103908 1.082243
v -0.459972 0.165567 -1.098681
v -0.469817 0.167207 1.083184
v -0.391881 0.221224 -1.097441
v -0.401726 0.222864 1.084424
v -0.308541 0.267101 -1.095952
v -0.318386 0.268740 1.085913
v -0.213155 0.301434 -1.094270
v -0.223000 0.303073 1.087595
v -0.109388 0.322904 -1.092459
v -0.119233 0.324543 1.089406
vt 1.000000 1.000000
vt 0.968750 0.500000
vt 1.000000 0.500000
vt 0.968750 1.000000
vt 0.937500 0.500000
vt 0.937500 1.000000
vt 0.906250 0.500000
vt 0.906250 1.000000
vt 0.875000 0.500000
vt 0.875000 1.000000
vt 0.843750 0.500000
vt 0.843750 1.000000
vt 0.812500 0.500000
vt 0.812500 1.000000
vt 0.781250 0.500000
vt 0.781250 1.000000
vt 0.750000 0.500000
vt 0.718750 1.000000
vt 0.718750 0.500000
vt 0.687500 1.000000
vt 0.687500 0.500000
vt 0.656250 1.000000
vt 0.656250 0.500000
vt 0.625000 1.000000
vt 0.625000 0.500000
vt 0.593750 1.000000
vt 0.593750 0.500000
vt 0.562500 1.000000
vt 0.562500 0.500000
vt 0.531250 1.000000
vt 0.531250 0.500000
vt 0.500000 1.000000
vt 0.500000 0.500000
vt 0.468750 1.000000
vt 0.468750 0.500000
vt 0.437500 1.000000
vt 0.437500 0.500000
vt 0.406250 1.000000
vt 0.406250 0.500000
vt 0.375000 1.000000
vt 0.375000 0.500000
vt 0.343750 1.000000
vt 0.343750 0.500000
vt 0.312500 1.000000
vt 0.312500 0.500000
vt 0.281250 1.000000
vt 0.281250 0.500000
vt 0.250000 1.000000
vt 0.250000 0.500000
vt 0.218750 0.500000
vt 0.218750 1.000000
vt 0.187500 0.500000
vt 0.187500 1.000000
vt 0.156250 0.500000
vt 0.156250 1.000000
vt 0.125000 0.500000
vt 0.125000 1.000000
vt 0.093750 0.500000
vt 0.093750 1.000000
vt 0.062500 0.500000
vt 0.419706 0.419706
vt 0.383337 0.449553
vt 0.383337 0.050447
vt 0.062500 1.000000
vt 0.031250 0.500000
vt 0.031250 1.000000
vt 0.000000 0.500000
vt 0.616663 0.449553
vt 0.658156 0.471731
vt 0.616663 0.050447
vt 0.750000 1.000000
vt 0.341844 0.471731
vt 0.296822 0.485388
vt 0.296822 0.014612
vt 0.250000 0.490000
vt 0.250000 0.010000
vt 0.203179 0.485389
vt 0.203178 0.014612
vt 0.158156 0.471731
vt 0.158156 0.028269
vt 0.116663 0.449553
vt 0.116663 0.050447
vt 0.080295 0.419706
vt 0.080294 0.080294
vt 0.050447 0.383337
vt 0.050447 0.116663
vt 0.028269 0.341844
vt 0.028269 0.158156
vt 0.014612 0.296822
vt 0.014611 0.203179
vt 0.010000 0.250000
vt 0.341844 0.028269
vt 0.419706 0.080294
vt 0.449553 0.116663
vt 0.449553 0.383337
vt 0.471731 0.158156
vt 0.471731 0.341844
vt 0.485388 0.203178
vt 0.485388 0.296822
vt 0.490000 0.250000
vt 0.000000 1.000000
vt 0.703179 0.485389
vt 0.750000 0.490000
vt 0.703178 0.014612
vt 0.796822 0.485388
vt 0.750000 0.010000
vt 0.796822 0.014612
vt 0.841844 0.471731
vt 0.883337 0.449553
vt 0.841844 0.028269
vt 0.919706 0.419706
vt 0.883337 0.050447
vt 0.949553 0.383337
vt 0.919706 0.080294
vt 0.949553 0.116663
vt 0.971731 0.341844
vt 0.985388 0.296822
vt 0.971731 0.158156
vt 0.990000 0.250000
vt 0.985388 0.203178
vt 0.658156 0.028269
vt 0.580294 0.080294
vt 0.550447 0.116663
vt 0.580295 0.419706
vt 0.550447 0.383337
vt 0.528269 0.158156
vt 0.514611 0.203179
vt 0.528269 0.341844
vt 0.510000 0.250000
vt 0.514612 0.296822
vn 0.0572 0.9984 -0.0005
vn 0.1876 0.9822 0.0001
vn 0.3229 0.9464 0.0007
vn 0.4656 0.8850 0.0014
vn 0.6156 0.7880 0.0022
vn 0.7668 0.6418 0.0030
vn 0.9011 0.4336 0.0037
vn 0.9863 0.1650 0.0043
vn 0.9912 -0.1320 0.0046
vn 0.9139 -0.4060 0.0044
vn 0.7833 -0.6216 0.0040
vn 0.6328 -0.7743 0.0034
vn 0.4822 -0.8761 0.0028
vn 0.3386 -0.9409 0.0022
vn 0.2026 -0.9793 0.0016
vn 0.0717 -0.9974 0.0011
vn -0.0572 -0.9984 0.0005
vn -0.1876 -0.9822 -0.0001
vn -0.3229 -0.9464 -0.0007
vn -0.4656 -0.8850 -0.0014
vn -0.6156 -0.7880 -0.0022
vn -0.7668 -0.6418 -0.0030
vn -0.9011 -0.4335 -0.0037
vn -0.9863 -0.1650 -0.0043
vn -0.9912 0.1320 -0.0046
vn -0.9139 0.4060 -0.0044
vn -0.7833 0.6216 -0.0040
vn -0.6328 0.7743 -0.0034
vn -0.4822 0.8761 -0.0028
vn -0.3386 0.9409 -0.0022
vn -0.0172 -0.0012 0.9999
vn -0.2026 0.9793 -0.0017
vn -0.0717 0.9974 -0.0011
vn 0.0172 0.0012 -0.9999
vn -0.9011 -0.4336 -0.0037
vn -0.2026 0.9793 -0.0016
usemtl None
s off
f 2/1/1 3/2/1 1/3/1
f 4/4/2 5/5/2 3/2/2
f 6/6/3 7/7/3 5/5/3
f 8/8/4 9/9/4 7/7/4
f 10/10/5 11/11/5 9/9/5
f 12/12/6 13/13/6 11/11/6
f 14/14/7 15/15/7 13/13/7
f 16/16/8 17/17/8 15/15/8
f 17/17/9 20/18/9 19/19/9
f 19/19/10 22/20/10 21/21/10
f 21/21/11 24/22/11 23/23/11
f 23/23/12 26/24/12 25/25/12
f 25/25/13 28/26/13 27/27/13
f 27/27/14 30/28/14 29/29/14
f 29/29/15 32/30/15 31/31/15
f 31/31/16 34/32/16 33/33/16
f 33/33/17 36/34/17 35/35/17
f 35/35/18 38/36/18 37/37/18
f 37/37/19 40/38/19 39/39/19
f 39/39/20 42/40/20 41/41/20
f 41/41/21 44/42/21 43/43/21
f 43/43/22 46/44/22 45/45/22
f 45/45/23 48/46/23 47/47/23
f 47/47/24 50/48/24 49/49/24
f 50/48/25 51/50/25 49/49/25
f 52/51/26 53/52/26 51/50/26
f 54/53/27 55/54/27 53/52/27
f 56/55/28 57/56/28 55/54/28
f 58/57/29 59/58/29 57/56/29
f 60/59/30 61/60/30 59/58/30
f 10/61/31 8/62/31 28/63/31
f 62/64/32 63/65/32 61/60/32
f 64/66/33 1/67/33 63/65/33
f 59/68/34 61/69/34 39/70/34
f 2/1/1 4/4/1 3/2/1
f 4/4/2 6/6/2 5/5/2
f 6/6/3 8/8/3 7/7/3
f 8/8/4 10/10/4 9/9/4
f 10/10/5 12/12/5 11/11/5
f 12/12/6 14/14/6 13/13/6
f 14/14/7 16/16/7 15/15/7
f 16/16/8 18/71/8 17/17/8
f 17/17/9 18/71/9 20/18/9
f 19/19/10 20/18/10 22/20/10
f 21/21/11 22/20/11 24/22/11
f 23/23/12 24/22/12 26/24/12
f 25/25/13 26/24/13 28/26/13
f 27/27/14 28/26/14 30/28/14
f 29/29/15 30/28/15 32/30/15
f 31/31/16 32/30/16 34/32/16
f 33/33/17 34/32/17 36/34/17
f 35/35/18 36/34/18 38/36/18
f 37/37/19 38/36/19 40/38/19
f 39/39/20 40/38/20 42/40/20
f 41/41/21 42/40/21 44/42/21
f 43/43/22 44/42/22 46/44/22
f 45/45/35 46/44/35 48/46/35
f 47/47/24 48/46/24 50/48/24
f 50/48/25 52/51/25 51/50/25
f 52/51/26 54/53/26 53/52/26
f 54/53/27 56/55/27 55/54/27
f 56/55/28 58/57/28 57/56/28
f 58/57/29 60/59/29 59/58/29
f 60/59/30 62/64/30 61/60/30
f 6/72/31 4/73/31 32/74/31
f 4/73/31 2/75/31 34/76/31
f 2/75/31 64/77/31 36/78/31
f 64/77/31 62/79/31 38/80/31
f 62/79/31 60/81/31 40/82/31
f 60/81/31 58/83/31 42/84/31
f 62/79/31 40/82/31 38/80/31
f 58/83/31 56/85/31 44/86/31
f 56/85/31 54/87/31 46/88/31
f 58/83/31 44/86/31 42/84/31
f 54/87/31 52/89/31 48/90/31
f 52/89/31 50/91/31 48/90/31
f 48/90/31 46/88/31 54/87/31
f 46/88/31 44/86/31 56/85/31
f 42/84/31 40/82/31 60/81/31
f 38/80/31 36/78/31 64/77/31
f 36/78/31 34/76/31 2/75/31
f 34/76/31 32/74/31 4/73/31
f 32/74/31 30/92/31 6/72/31
f 30/92/31 28/63/31 8/62/31
f 28/63/31 26/93/31 10/61/31
f 30/92/31 8/62/31 6/72/31
f 26/93/31 24/94/31 12/95/31
f 24/94/31 22/96/31 14/97/31
f 26/93/31 12/95/31 10/61/31
f 22/96/31 20/98/31 16/99/31
f 20/98/31 18/100/31 16/99/31
f 16/99/31 14/97/31 22/96/31
f 14/97/31 12/95/31 24/94/31
f 62/64/36 64/66/36 63/65/36
f 64/66/33 2/101/33 1/67/33
f 63/102/34 1/103/34 35/104/34
f 1/103/34 3/105/34 33/106/34
f 33/106/34 3/105/34 31/107/34
f 3/105/34 5/108/34 31/107/34
f 5/108/34 7/109/34 29/110/34
f 31/107/34 5/108/34 29/110/34
f 7/109/34 9/111/34 27/112/34
f 9/111/34 11/113/34 25/114/34
f 25/114/34 11/113/34 23/115/34
f 11/113/34 13/116/34 23/115/34
f 13/116/34 15/117/34 21/118/34
f 23/115/34 13/116/34 21/118/34
f 15/117/34 17/119/34 19/120/34
f 19/120/34 21/118/34 15/117/34
f 25/114/34 27/112/34 9/111/34
f 27/112/34 29/110/34 7/109/34
f 33/106/34 35/104/34 1/103/34
f 35/104/34 37/121/34 63/102/34
f 37/121/34 39/70/34 61/69/34
f 63/102/34 37/121/34 61/69/34
f 39/70/34 41/122/34 59/68/34
f 41/122/34 43/123/34 57/124/34
f 57/124/34 43/123/34 55/125/34
f 43/123/34 45/126/34 55/125/34
f 45/126/34 47/127/34 53/128/34
f 55/125/34 45/126/34 53/128/34
f 47/127/34 49/129/34 51/130/34
f 51/130/34 53/128/34 47/127/34
f 57/124/34 59/68/34 41/122/34
