# Blender v2.83.4 OBJ File: ''
# www.blender.org
mtllib cylindersmall.mtl
o Cylinder
v -0.006274 0.331966 -0.517722
v -0.006018 0.331040 0.517336
v 0.102123 0.325760 -0.516333
v 0.102379 0.324834 0.518726
v 0.206590 0.305805 -0.514985
v 0.206846 0.304879 0.520073
v 0.303114 0.272869 -0.513731
v 0.303370 0.271943 0.521327
v 0.387984 0.228216 -0.512620
v 0.388240 0.227291 0.522438
v 0.457939 0.173564 -0.511693
v 0.458195 0.172638 0.523365
v 0.510291 0.111012 -0.510987
v 0.510547 0.110086 0.524072
v 0.543028 0.042964 -0.510528
v 0.543283 0.042039 0.524530
v 0.554891 -0.027964 -0.510334
v 0.555147 -0.028890 0.524724
v 0.545426 -0.099048 -0.510413
v 0.545681 -0.099974 0.524645
v 0.514995 -0.167555 -0.510762
v 0.515251 -0.168481 0.524296
v 0.464768 -0.230853 -0.511367
v 0.465024 -0.231779 0.523692
v 0.396676 -0.286509 -0.512204
v 0.396931 -0.287435 0.522854
v 0.313334 -0.332385 -0.513243
v 0.313590 -0.333311 0.521816
v 0.217947 -0.366717 -0.514442
v 0.218202 -0.367643 0.520616
v 0.114179 -0.388186 -0.515756
v 0.114434 -0.389111 0.519302
v 0.006018 -0.395966 -0.517134
v 0.006273 -0.396892 0.517924
v -0.102379 -0.389760 -0.518524
v -0.102124 -0.390686 0.516534
v -0.206847 -0.369805 -0.519871
v -0.206591 -0.370731 0.515187
v -0.303370 -0.336869 -0.521125
v -0.303115 -0.337795 0.513933
v -0.388240 -0.292217 -0.522236
v -0.387985 -0.293142 0.512822
v -0.458195 -0.237564 -0.523163
v -0.457940 -0.238490 0.511895
v -0.510547 -0.175012 -0.523870
v -0.510292 -0.175938 0.511189
v -0.543284 -0.106964 -0.524328
v -0.543028 -0.107890 0.510730
v -0.555147 -0.036035 -0.524522
v -0.554892 -0.036961 0.510536
v -0.545682 0.035048 -0.524443
v -0.545426 0.034123 0.510615
v -0.515251 0.103556 -0.524094
v -0.514995 0.102630 0.510964
v -0.465024 0.166853 -0.523490
v -0.464768 0.165928 0.511569
v -0.396931 0.222509 -0.522652
v -0.396676 0.221584 0.512406
v -0.313590 0.268385 -0.521614
v -0.313334 0.267459 0.513445
v -0.218202 0.302717 -0.520414
v -0.217946 0.301791 0.514644
v -0.114434 0.324185 -0.519100
v -0.114178 0.323260 0.515958
vt 1.000000 1.000000
vt 0.968750 0.500000
vt 1.000000 0.500000
vt 0.968750 1.000000
vt 0.937500 0.500000
vt 0.937500 1.000000
vt 0.906250 0.500000
vt 0.906250 1.000000
vt 0.875000 0.500000
vt 0.875000 1.000000
vt 0.843750 0.500000
vt 0.843750 1.000000
vt 0.812500 0.500000
vt 0.812500 1.000000
vt 0.781250 0.500000
vt 0.781250 1.000000
vt 0.750000 0.500000
vt 0.718750 1.000000
vt 0.718750 0.500000
vt 0.687500 1.000000
vt 0.687500 0.500000
vt 0.656250 1.000000
vt 0.656250 0.500000
vt 0.625000 1.000000
vt 0.625000 0.500000
vt 0.593750 1.000000
vt 0.593750 0.500000
vt 0.562500 1.000000
vt 0.562500 0.500000
vt 0.531250 1.000000
vt 0.531250 0.500000
vt 0.500000 1.000000
vt 0.500000 0.500000
vt 0.468750 1.000000
vt 0.468750 0.500000
vt 0.437500 1.000000
vt 0.437500 0.500000
vt 0.406250 1.000000
vt 0.406250 0.500000
vt 0.375000 1.000000
vt 0.375000 0.500000
vt 0.343750 1.000000
vt 0.343750 0.500000
vt 0.312500 1.000000
vt 0.312500 0.500000
vt 0.281250 1.000000
vt 0.281250 0.500000
vt 0.250000 1.000000
vt 0.250000 0.500000
vt 0.218750 0.500000
vt 0.218750 1.000000
vt 0.187500 0.500000
vt 0.187500 1.000000
vt 0.156250 0.500000
vt 0.156250 1.000000
vt 0.125000 0.500000
vt 0.125000 1.000000
vt 0.093750 0.500000
vt 0.093750 1.000000
vt 0.062500 0.500000
vt 0.419706 0.419706
vt 0.383337 0.449553
vt 0.383337 0.050447
vt 0.062500 1.000000
vt 0.031250 0.500000
vt 0.031250 1.000000
vt 0.000000 0.500000
vt 0.616663 0.449553
vt 0.658156 0.471731
vt 0.616663 0.050447
vt 0.750000 1.000000
vt 0.341844 0.471731
vt 0.296822 0.485388
vt 0.296822 0.014612
vt 0.250000 0.490000
vt 0.250000 0.010000
vt 0.203179 0.485389
vt 0.203178 0.014612
vt 0.158156 0.471731
vt 0.158156 0.028269
vt 0.116663 0.449553
vt 0.116663 0.050447
vt 0.080295 0.419706
vt 0.080294 0.080294
vt 0.050447 0.383337
vt 0.050447 0.116663
vt 0.028269 0.341844
vt 0.028269 0.158156
vt 0.014612 0.296822
vt 0.014611 0.203179
vt 0.010000 0.250000
vt 0.341844 0.028269
vt 0.419706 0.080294
vt 0.449553 0.116663
vt 0.449553 0.383337
vt 0.471731 0.158156
vt 0.471731 0.341844
vt 0.485388 0.203178
vt 0.485388 0.296822
vt 0.490000 0.250000
vt 0.000000 1.000000
vt 0.703179 0.485389
vt 0.750000 0.490000
vt 0.703178 0.014612
vt 0.796822 0.485388
vt 0.750000 0.010000
vt 0.796822 0.014612
vt 0.841844 0.471731
vt 0.883337 0.449553
vt 0.841844 0.028269
vt 0.919706 0.419706
vt 0.883337 0.050447
vt 0.949553 0.383337
vt 0.919706 0.080294
vt 0.949553 0.116663
vt 0.971731 0.341844
vt 0.985388 0.296822
vt 0.971731 0.158156
vt 0.990000 0.250000
vt 0.985388 0.203178
vt 0.658156 0.028269
vt 0.580294 0.080294
vt 0.550447 0.116663
vt 0.580295 0.419706
vt 0.550447 0.383337
vt 0.528269 0.158156
vt 0.514611 0.203179
vt 0.528269 0.341844
vt 0.510000 0.250000
vt 0.514612 0.296822
vn 0.0571 0.9984 0.0009
vn 0.1876 0.9822 0.0008
vn 0.3229 0.9464 0.0008
vn 0.4656 0.8850 0.0007
vn 0.6156 0.7880 0.0006
vn 0.7669 0.6418 0.0004
vn 0.9011 0.4335 0.0002
vn 0.9863 0.1650 -0.0001
vn 0.9912 -0.1320 -0.0004
vn 0.9139 -0.4059 -0.0006
vn 0.7833 -0.6216 -0.0007
vn 0.6329 -0.7743 -0.0008
vn 0.4822 -0.8760 -0.0009
vn 0.3387 -0.9409 -0.0009
vn 0.2026 -0.9793 -0.0009
vn 0.0718 -0.9974 -0.0009
vn -0.0571 -0.9984 -0.0009
vn -0.1876 -0.9822 -0.0008
vn -0.3229 -0.9464 -0.0008
vn -0.4656 -0.8850 -0.0007
vn -0.6156 -0.7880 -0.0006
vn -0.7669 -0.6418 -0.0004
vn -0.9011 -0.4335 -0.0002
vn -0.9863 -0.1650 0.0001
vn -0.9913 0.1320 0.0004
vn -0.9139 0.4060 0.0006
vn -0.7833 0.6216 0.0007
vn -0.6329 0.7743 0.0008
vn -0.4822 0.8760 0.0009
vn -0.3387 0.9409 0.0009
vn -0.0128 0.0006 0.9999
vn -0.2026 0.9793 0.0009
vn -0.0718 0.9974 0.0009
vn 0.0128 -0.0006 -0.9999
vn 0.0572 0.9984 0.0009
vn 0.9913 -0.1320 -0.0004
vn 0.7834 -0.6216 -0.0007
vn -0.9912 0.1320 0.0004
vn -0.9139 0.4059 0.0006
usemtl None
s off
f 2/1/1 3/2/1 1/3/1
f 4/4/2 5/5/2 3/2/2
f 6/6/3 7/7/3 5/5/3
f 8/8/4 9/9/4 7/7/4
f 10/10/5 11/11/5 9/9/5
f 12/12/6 13/13/6 11/11/6
f 14/14/7 15/15/7 13/13/7
f 16/16/8 17/17/8 15/15/8
f 17/17/9 20/18/9 19/19/9
f 19/19/10 22/20/10 21/21/10
f 21/21/11 24/22/11 23/23/11
f 23/23/12 26/24/12 25/25/12
f 25/25/13 28/26/13 27/27/13
f 27/27/14 30/28/14 29/29/14
f 29/29/15 32/30/15 31/31/15
f 31/31/16 34/32/16 33/33/16
f 33/33/17 36/34/17 35/35/17
f 35/35/18 38/36/18 37/37/18
f 37/37/19 40/38/19 39/39/19
f 39/39/20 42/40/20 41/41/20
f 41/41/21 44/42/21 43/43/21
f 43/43/22 46/44/22 45/45/22
f 45/45/23 48/46/23 47/47/23
f 47/47/24 50/48/24 49/49/24
f 50/48/25 51/50/25 49/49/25
f 52/51/26 53/52/26 51/50/26
f 54/53/27 55/54/27 53/52/27
f 56/55/28 57/56/28 55/54/28
f 58/57/29 59/58/29 57/56/29
f 60/59/30 61/60/30 59/58/30
f 10/61/31 8/62/31 28/63/31
f 62/64/32 63/65/32 61/60/32
f 64/66/33 1/67/33 63/65/33
f 59/68/34 61/69/34 39/70/34
f 2/1/35 4/4/35 3/2/35
f 4/4/2 6/6/2 5/5/2
f 6/6/3 8/8/3 7/7/3
f 8/8/4 10/10/4 9/9/4
f 10/10/5 12/12/5 11/11/5
f 12/12/6 14/14/6 13/13/6
f 14/14/7 16/16/7 15/15/7
f 16/16/8 18/71/8 17/17/8
f 17/17/36 18/71/36 20/18/36
f 19/19/10 20/18/10 22/20/10
f 21/21/37 22/20/37 24/22/37
f 23/23/12 24/22/12 26/24/12
f 25/25/13 26/24/13 28/26/13
f 27/27/14 28/26/14 30/28/14
f 29/29/15 30/28/15 32/30/15
f 31/31/16 32/30/16 34/32/16
f 33/33/17 34/32/17 36/34/17
f 35/35/18 36/34/18 38/36/18
f 37/37/19 38/36/19 40/38/19
f 39/39/20 40/38/20 42/40/20
f 41/41/21 42/40/21 44/42/21
f 43/43/22 44/42/22 46/44/22
f 45/45/23 46/44/23 48/46/23
f 47/47/24 48/46/24 50/48/24
f 50/48/38 52/51/38 51/50/38
f 52/51/39 54/53/39 53/52/39
f 54/53/27 56/55/27 55/54/27
f 56/55/28 58/57/28 57/56/28
f 58/57/29 60/59/29 59/58/29
f 60/59/30 62/64/30 61/60/30
f 6/72/31 4/73/31 32/74/31
f 4/73/31 2/75/31 34/76/31
f 2/75/31 64/77/31 36/78/31
f 64/77/31 62/79/31 38/80/31
f 62/79/31 60/81/31 40/82/31
f 60/81/31 58/83/31 42/84/31
f 62/79/31 40/82/31 38/80/31
f 58/83/31 56/85/31 44/86/31
f 56/85/31 54/87/31 46/88/31
f 58/83/31 44/86/31 42/84/31
f 54/87/31 52/89/31 48/90/31
f 52/89/31 50/91/31 48/90/31
f 48/90/31 46/88/31 54/87/31
f 46/88/31 44/86/31 56/85/31
f 42/84/31 40/82/31 60/81/31
f 38/80/31 36/78/31 64/77/31
f 36/78/31 34/76/31 2/75/31
f 34/76/31 32/74/31 4/73/31
f 32/74/31 30/92/31 6/72/31
f 30/92/31 28/63/31 8/62/31
f 28/63/31 26/93/31 10/61/31
f 30/92/31 8/62/31 6/72/31
f 26/93/31 24/94/31 12/95/31
f 24/94/31 22/96/31 14/97/31
f 26/93/31 12/95/31 10/61/31
f 22/96/31 20/98/31 16/99/31
f 20/98/31 18/100/31 16/99/31
f 16/99/31 14/97/31 22/96/31
f 14/97/31 12/95/31 24/94/31
f 62/64/32 64/66/32 63/65/32
f 64/66/33 2/101/33 1/67/33
f 63/102/34 1/103/34 35/104/34
f 1/103/34 3/105/34 33/106/34
f 33/106/34 3/105/34 31/107/34
f 3/105/34 5/108/34 31/107/34
f 5/108/34 7/109/34 29/110/34
f 31/107/34 5/108/34 29/110/34
f 7/109/34 9/111/34 27/112/34
f 9/111/34 11/113/34 25/114/34
f 25/114/34 11/113/34 23/115/34
f 11/113/34 13/116/34 23/115/34
f 13/116/34 15/117/34 21/118/34
f 23/115/34 13/116/34 21/118/34
f 15/117/34 17/119/34 19/120/34
f 19/120/34 21/118/34 15/117/34
f 25/114/34 27/112/34 9/111/34
f 27/112/34 29/110/34 7/109/34
f 33/106/34 35/104/34 1/103/34
f 35/104/34 37/121/34 63/102/34
f 37/121/34 39/70/34 61/69/34
f 63/102/34 37/121/34 61/69/34
f 39/70/34 41/122/34 59/68/34
f 41/122/34 43/123/34 57/124/34
f 57/124/34 43/123/34 55/125/34
f 43/123/34 45/126/34 55/125/34
f 45/126/34 47/127/34 53/128/34
f 55/125/34 45/126/34 53/128/34
f 47/127/34 49/129/34 51/130/34
f 51/130/34 53/128/34 47/127/34
f 57/124/34 59/68/34 41/122/34
