# Blender v2.83.4 OBJ File: ''
# www.blender.org
mtllib enemylufa.mtl
o Cylinder_Cylinder.001
v 0.089997 0.156017 0.017051
v 0.104316 0.153827 -2.833739
v 0.090367 0.170931 0.017042
v 0.104687 0.168741 -2.833749
v 0.086990 0.185843 0.017013
v 0.101309 0.183652 -2.833777
v 0.079995 0.200179 0.016967
v 0.094314 0.197989 -2.833824
v 0.069651 0.213390 0.016905
v 0.083970 0.211200 -2.833886
v 0.056354 0.224967 0.016829
v 0.070673 0.222777 -2.833961
v 0.040617 0.234465 0.016743
v 0.054936 0.232275 -2.834048
v 0.023044 0.241520 0.016649
v 0.037363 0.239330 -2.834141
v 0.004310 0.245860 0.016552
v 0.018629 0.243670 -2.834239
v -0.014865 0.247319 0.016454
v -0.000546 0.245129 -2.834336
v -0.033743 0.245840 0.016361
v -0.019424 0.243650 -2.834430
v -0.051600 0.241480 0.016274
v -0.037281 0.239290 -2.834516
v -0.067749 0.234407 0.016199
v -0.053430 0.232217 -2.834592
v -0.081570 0.224893 0.016137
v -0.067251 0.222703 -2.834654
v -0.092531 0.213303 0.016090
v -0.078212 0.211113 -2.834700
v -0.100211 0.200083 0.016062
v -0.085892 0.197893 -2.834729
v -0.104316 0.185740 0.016052
v -0.089997 0.183550 -2.834738
v -0.104687 0.170827 0.016062
v -0.090367 0.168636 -2.834729
v -0.101309 0.155915 0.016090
v -0.086990 0.153724 -2.834700
v -0.094314 0.141578 0.016137
v -0.079995 0.139388 -2.834654
v -0.083970 0.128367 0.016199
v -0.069650 0.126177 -2.834592
v -0.070673 0.116790 0.016274
v -0.056354 0.114600 -2.834516
v -0.054936 0.107292 0.016361
v -0.040617 0.105102 -2.834430
v -0.037363 0.100237 0.016454
v -0.023044 0.098047 -2.834336
v -0.018629 0.095897 0.016552
v -0.004310 0.093707 -2.834239
v 0.000546 0.094439 0.016649
v 0.014865 0.092248 -2.834141
v 0.019424 0.095918 0.016743
v 0.033743 0.093727 -2.834048
v 0.037281 0.100277 0.016829
v 0.051600 0.098087 -2.833961
v 0.053430 0.107350 0.016905
v 0.067749 0.105160 -2.833886
v 0.067251 0.116864 0.016967
v 0.081570 0.114674 -2.833824
v 0.078212 0.128454 0.017013
v 0.092531 0.126264 -2.833777
v 0.085892 0.141675 0.017042
v 0.100211 0.139484 -2.833749
vt 1.000000 1.000000
vt 0.968750 0.500000
vt 1.000000 0.500000
vt 0.968750 1.000000
vt 0.937500 0.500000
vt 0.937500 1.000000
vt 0.906250 0.500000
vt 0.906250 1.000000
vt 0.875000 0.500000
vt 0.875000 1.000000
vt 0.843750 0.500000
vt 0.843750 1.000000
vt 0.812500 0.500000
vt 0.812500 1.000000
vt 0.781250 0.500000
vt 0.781250 1.000000
vt 0.750000 0.500000
vt 0.750000 1.000000
vt 0.718750 0.500000
vt 0.718750 1.000000
vt 0.687500 0.500000
vt 0.687500 1.000000
vt 0.656250 0.500000
vt 0.656250 1.000000
vt 0.625000 0.500000
vt 0.625000 1.000000
vt 0.593750 0.500000
vt 0.593750 1.000000
vt 0.562500 0.500000
vt 0.562500 1.000000
vt 0.531250 0.500000
vt 0.531250 1.000000
vt 0.500000 0.500000
vt 0.500000 1.000000
vt 0.468750 0.500000
vt 0.468750 1.000000
vt 0.437500 0.500000
vt 0.437500 1.000000
vt 0.406250 0.500000
vt 0.406250 1.000000
vt 0.375000 0.500000
vt 0.375000 1.000000
vt 0.343750 0.500000
vt 0.343750 1.000000
vt 0.312500 0.500000
vt 0.312500 1.000000
vt 0.281250 0.500000
vt 0.281250 1.000000
vt 0.250000 0.500000
vt 0.250000 1.000000
vt 0.218750 0.500000
vt 0.218750 1.000000
vt 0.187500 0.500000
vt 0.187500 1.000000
vt 0.156250 0.500000
vt 0.156250 1.000000
vt 0.125000 0.500000
vt 0.125000 1.000000
vt 0.093750 0.500000
vt 0.093750 1.000000
vt 0.062500 0.500000
vt 0.028269 0.341844
vt 0.158156 0.028269
vt 0.471731 0.158156
vt 0.062500 1.000000
vt 0.031250 0.500000
vt 0.031250 1.000000
vt 0.000000 0.500000
vt 0.985388 0.296822
vt 0.796822 0.014612
vt 0.514611 0.203179
vt 0.341844 0.471731
vt 0.296822 0.485388
vt 0.250000 0.490000
vt 0.203179 0.485389
vt 0.158156 0.471731
vt 0.116663 0.449553
vt 0.080295 0.419706
vt 0.050447 0.383337
vt 0.014612 0.296822
vt 0.010000 0.250000
vt 0.014611 0.203179
vt 0.028269 0.158156
vt 0.050447 0.116663
vt 0.080294 0.080294
vt 0.116663 0.050447
vt 0.203178 0.014612
vt 0.250000 0.010000
vt 0.296822 0.014612
vt 0.341844 0.028269
vt 0.383337 0.050447
vt 0.419706 0.080294
vt 0.449553 0.116663
vt 0.485388 0.203178
vt 0.490000 0.250000
vt 0.485388 0.296822
vt 0.471731 0.341844
vt 0.449553 0.383337
vt 0.419706 0.419706
vt 0.383337 0.449553
vt 0.000000 1.000000
vt 0.703179 0.485389
vt 0.750000 0.490000
vt 0.796822 0.485388
vt 0.841844 0.471731
vt 0.883337 0.449553
vt 0.919706 0.419706
vt 0.949553 0.383337
vt 0.971731 0.341844
vt 0.990000 0.250000
vt 0.985388 0.203178
vt 0.971731 0.158156
vt 0.949553 0.116663
vt 0.919706 0.080294
vt 0.883337 0.050447
vt 0.841844 0.028269
vt 0.750000 0.010000
vt 0.703178 0.014612
vt 0.658156 0.028269
vt 0.616663 0.050447
vt 0.580294 0.080294
vt 0.550447 0.116663
vt 0.528269 0.158156
vt 0.510000 0.250000
vt 0.514612 0.296822
vt 0.528269 0.341844
vt 0.550447 0.383337
vt 0.580295 0.419706
vt 0.616663 0.449553
vt 0.658156 0.471731
vn 0.9997 -0.0248 0.0050
vn 0.9753 0.2209 0.0047
vn 0.8987 0.4385 0.0042
vn 0.7873 0.6165 0.0035
vn 0.6566 0.7542 0.0027
vn 0.5167 0.8561 0.0019
vn 0.3725 0.9280 0.0012
vn 0.2257 0.9742 0.0004
vn 0.0759 0.9971 -0.0004
vn -0.0781 0.9969 -0.0012
vn -0.2372 0.9715 -0.0019
vn -0.4012 0.9160 -0.0027
vn -0.5670 0.8237 -0.0035
vn -0.7265 0.6871 -0.0042
vn -0.8647 0.5023 -0.0047
vn -0.9614 0.2751 -0.0050
vn -0.9997 0.0248 -0.0050
vn -0.9753 -0.2209 -0.0047
vn -0.8987 -0.4385 -0.0042
vn -0.7873 -0.6165 -0.0035
vn -0.6566 -0.7542 -0.0027
vn -0.5167 -0.8561 -0.0019
vn -0.3725 -0.9280 -0.0012
vn -0.2257 -0.9742 -0.0004
vn -0.0759 -0.9971 0.0004
vn 0.0781 -0.9969 0.0012
vn 0.2372 -0.9715 0.0019
vn 0.4012 -0.9160 0.0027
vn 0.5670 -0.8237 0.0035
vn 0.7265 -0.6871 0.0042
vn 0.0050 -0.0008 -1.0000
vn 0.8647 -0.5023 0.0047
vn 0.9614 -0.2751 0.0050
vn -0.0050 0.0008 1.0000
vn 0.9997 -0.0249 0.0050
vn 0.6567 0.7542 0.0027
vn -0.6567 -0.7542 -0.0027
vn 0.0052 -0.0008 -1.0000
vn 0.0049 -0.0008 -1.0000
vn 0.0051 -0.0008 -1.0000
vn 0.0049 -0.0007 -1.0000
vn 0.0052 -0.0009 -1.0000
vn 0.0050 -0.0009 -1.0000
vn 0.0050 -0.0007 -1.0000
vn 0.0053 -0.0007 -1.0000
vn -0.0051 0.0008 1.0000
vn -0.0050 0.0007 1.0000
usemtl None
s off
f 2/1/1 3/2/1 1/3/1
f 4/4/2 5/5/2 3/2/2
f 6/6/3 7/7/3 5/5/3
f 8/8/4 9/9/4 7/7/4
f 10/10/5 11/11/5 9/9/5
f 12/12/6 13/13/6 11/11/6
f 14/14/7 15/15/7 13/13/7
f 16/16/8 17/17/8 15/15/8
f 18/18/9 19/19/9 17/17/9
f 20/20/10 21/21/10 19/19/10
f 22/22/11 23/23/11 21/21/11
f 24/24/12 25/25/12 23/23/12
f 26/26/13 27/27/13 25/25/13
f 28/28/14 29/29/14 27/27/14
f 30/30/15 31/31/15 29/29/15
f 32/32/16 33/33/16 31/31/16
f 34/34/17 35/35/17 33/33/17
f 36/36/18 37/37/18 35/35/18
f 38/38/19 39/39/19 37/37/19
f 40/40/20 41/41/20 39/39/20
f 42/42/21 43/43/21 41/41/21
f 44/44/22 45/45/22 43/43/22
f 46/46/23 47/47/23 45/45/23
f 48/48/24 49/49/24 47/47/24
f 50/50/25 51/51/25 49/49/25
f 52/52/26 53/53/26 51/51/26
f 54/54/27 55/55/27 53/53/27
f 56/56/28 57/57/28 55/55/28
f 58/58/29 59/59/29 57/57/29
f 60/60/30 61/61/30 59/59/30
f 54/62/31 38/63/31 22/64/31
f 62/65/32 63/66/32 61/61/32
f 64/67/33 1/68/33 63/66/33
f 15/69/34 31/70/34 47/71/34
f 2/1/35 4/4/35 3/2/35
f 4/4/2 6/6/2 5/5/2
f 6/6/3 8/8/3 7/7/3
f 8/8/4 10/10/4 9/9/4
f 10/10/36 12/12/36 11/11/36
f 12/12/6 14/14/6 13/13/6
f 14/14/7 16/16/7 15/15/7
f 16/16/8 18/18/8 17/17/8
f 18/18/9 20/20/9 19/19/9
f 20/20/10 22/22/10 21/21/10
f 22/22/11 24/24/11 23/23/11
f 24/24/12 26/26/12 25/25/12
f 26/26/13 28/28/13 27/27/13
f 28/28/14 30/30/14 29/29/14
f 30/30/15 32/32/15 31/31/15
f 32/32/16 34/34/16 33/33/16
f 34/34/17 36/36/17 35/35/17
f 36/36/18 38/38/18 37/37/18
f 38/38/19 40/40/19 39/39/19
f 40/40/20 42/42/20 41/41/20
f 42/42/37 44/44/37 43/43/37
f 44/44/22 46/46/22 45/45/22
f 46/46/23 48/48/23 47/47/23
f 48/48/24 50/50/24 49/49/24
f 50/50/25 52/52/25 51/51/25
f 52/52/26 54/54/26 53/53/26
f 54/54/27 56/56/27 55/55/27
f 56/56/28 58/58/28 57/57/28
f 58/58/29 60/60/29 59/59/29
f 60/60/30 62/65/30 61/61/30
f 6/72/38 4/73/38 2/74/38
f 2/74/39 64/75/39 6/72/39
f 64/75/40 62/76/40 6/72/40
f 62/76/41 60/77/41 58/78/41
f 58/78/42 56/79/42 54/62/42
f 54/62/43 52/80/43 50/81/43
f 50/81/31 48/82/31 54/62/31
f 48/82/44 46/83/44 54/62/44
f 46/83/44 44/84/44 38/63/44
f 44/84/31 42/85/31 38/63/31
f 42/85/39 40/86/39 38/63/39
f 38/63/39 36/87/39 34/88/39
f 34/88/38 32/89/38 30/90/38
f 30/90/41 28/91/41 26/92/41
f 26/92/42 24/93/42 22/64/42
f 22/64/43 20/94/43 18/95/43
f 18/95/31 16/96/31 22/64/31
f 16/96/44 14/97/44 22/64/44
f 14/97/45 12/98/45 10/99/45
f 10/99/40 8/100/40 6/72/40
f 62/76/31 58/78/31 6/72/31
f 58/78/31 54/62/31 6/72/31
f 38/63/31 34/88/31 22/64/31
f 34/88/31 30/90/31 22/64/31
f 30/90/31 26/92/31 22/64/31
f 14/97/31 10/99/31 22/64/31
f 10/99/31 6/72/31 22/64/31
f 54/62/31 46/83/31 38/63/31
f 6/72/31 54/62/31 22/64/31
f 62/65/32 64/67/32 63/66/32
f 64/67/33 2/101/33 1/68/33
f 63/102/34 1/103/34 3/104/34
f 3/104/46 5/105/46 7/106/46
f 7/106/34 9/107/34 11/108/34
f 11/108/47 13/109/47 7/106/47
f 13/109/34 15/69/34 7/106/34
f 15/69/34 17/110/34 19/111/34
f 19/111/34 21/112/34 15/69/34
f 21/112/34 23/113/34 15/69/34
f 23/113/34 25/114/34 31/70/34
f 25/114/34 27/115/34 31/70/34
f 27/115/46 29/116/46 31/70/46
f 31/70/34 33/117/34 35/118/34
f 35/118/46 37/119/46 39/120/46
f 39/120/34 41/121/34 43/122/34
f 43/122/34 45/123/34 47/71/34
f 47/71/34 49/124/34 51/125/34
f 51/125/47 53/126/47 55/127/47
f 55/127/34 57/128/34 63/102/34
f 57/128/34 59/129/34 63/102/34
f 59/129/46 61/130/46 63/102/46
f 63/102/34 3/104/34 7/106/34
f 31/70/34 35/118/34 47/71/34
f 35/118/34 39/120/34 47/71/34
f 39/120/34 43/122/34 47/71/34
f 47/71/34 51/125/34 63/102/34
f 51/125/34 55/127/34 63/102/34
f 63/102/34 7/106/34 15/69/34
f 15/69/34 23/113/34 31/70/34
f 63/102/34 15/69/34 47/71/34
